<svg xmlns="http://www.w3.org/2000/svg" viewBox="0 0 50 50"><title>Logo Monogram - Dark</title><path d="M24.9997,2.2124 C12.4347,2.2124 2.2127,12.4354 2.2127,25.0004 C2.2127,37.5654 12.4347,47.7874 24.9997,47.7874 C37.5647,47.7874 47.7877,37.5654 47.7877,25.0004 C47.7877,12.4354 37.5647,2.2124 24.9997,2.2124 M24.9997,50.0004 C11.2147,50.0004 -0.0003,38.7854 -0.0003,25.0004 C-0.0003,11.2144 11.2147,0.0004 24.9997,0.0004 C38.7847,0.0004 49.9997,11.2144 49.9997,25.0004 C49.9997,38.7854 38.7847,50.0004 24.9997,50.0004" fill-opacity="0.4" fill="#626262"></path><path d="M28.454,38.7267 C28.454,39.0907 28.149,39.3857 27.773,39.3857 L22.228,39.3857 C21.852,39.3857 21.546,39.0907 21.546,38.7267 L21.546,37.8487 C21.546,37.4847 21.852,37.1897 22.228,37.1897 L27.773,37.1897 C28.149,37.1897 28.454,37.4847 28.454,37.8487 L28.454,38.7267 Z" fill="#1FE9AE"></path><path d="M22.3403,15.8297 L22.3403,11.2667 C22.3403,10.8317 22.5893,10.6147 23.0243,10.6147 L24.0483,10.6147 C24.4823,10.6147 24.7313,10.8317 24.7313,11.2667 L24.7313,15.8297 L26.6873,15.8297 C27.1223,15.8297 27.3693,16.0467 27.3693,16.4827 L27.3693,17.1337 C27.3693,17.5687 27.1223,17.8177 26.6873,17.8177 L24.7313,17.8177 L24.7313,29.0247 C24.7313,30.3587 25.0733,31.1037 26.5633,31.1037 L27.3093,31.1037 C27.7423,31.1037 27.9923,31.3217 27.9923,31.7557 L27.9923,32.4077 C27.9923,32.8427 27.7423,33.0907 27.3093,33.0907 L26.5633,33.0907 C23.2723,33.0907 22.3403,31.6627 22.3403,29.0547 L22.3403,17.8177" fill="#2D2D2D"></path></svg>